REM DIRINDEX 1\2,1\3
REM DIRNAME cjc039,folder01,folder02
TITLE ""
FILE "2741-2760.mp3" MP3
  TRACK 01 AUDIO
    TITLE "0:"
    INDEX 01 00:00:00
  TRACK 02 AUDIO
    TITLE "2:cjc039_4481"
    INDEX 01 00:00:23
  TRACK 03 AUDIO
    TITLE "0:"
    INDEX 01 00:01:40
  TRACK 04 AUDIO
    TITLE "3:cjc039_4482"
    INDEX 01 00:02:14
  TRACK 05 AUDIO
    TITLE "0:"
    INDEX 01 00:07:17
  TRACK 06 AUDIO
    TITLE "2:cjc039_4483"
    INDEX 01 00:08:66
  TRACK 07 AUDIO
    TITLE "0:"
    INDEX 01 00:10:31
  TRACK 08 AUDIO
    TITLE "3:cjc039_4484"
    INDEX 01 00:11:13
  TRACK 09 AUDIO
    TITLE "0:"
    INDEX 01 00:15:34
  TRACK 10 AUDIO
    TITLE "2:cjc039_4485"
    INDEX 01 00:17:12
  TRACK 11 AUDIO
    TITLE "0:"
    INDEX 01 00:18:27
  TRACK 12 AUDIO
    TITLE "3:cjc039_4486"
    INDEX 01 00:19:11
  TRACK 13 AUDIO
    TITLE "0:"
    INDEX 01 00:22:50
  TRACK 14 AUDIO
    TITLE "2:cjc039_4487"
    INDEX 01 00:24:27
  TRACK 15 AUDIO
    TITLE "0:"
    INDEX 01 00:25:62
  TRACK 16 AUDIO
    TITLE "3:cjc039_4488"
    INDEX 01 00:26:38
  TRACK 17 AUDIO
    TITLE "0:"
    INDEX 01 00:30:73
  TRACK 18 AUDIO
    TITLE "2:cjc039_4489"
    INDEX 01 00:32:43
  TRACK 19 AUDIO
    TITLE "0:"
    INDEX 01 00:33:52
  TRACK 20 AUDIO
    TITLE "3:cjc039_4490"
    INDEX 01 00:34:26
  TRACK 21 AUDIO
    TITLE "0:"
    INDEX 01 00:37:14
  TRACK 22 AUDIO
    TITLE "2:cjc039_4491"
    INDEX 01 00:38:67
  TRACK 23 AUDIO
    TITLE "0:"
    INDEX 01 00:40:07
  TRACK 24 AUDIO
    TITLE "3:cjc039_4492"
    INDEX 01 00:40:56
  TRACK 25 AUDIO
    TITLE "0:"
    INDEX 01 00:44:38
  TRACK 26 AUDIO
    TITLE "2:cjc039_4493"
    INDEX 01 00:46:11
  TRACK 27 AUDIO
    TITLE "0:"
    INDEX 01 00:47:32
  TRACK 28 AUDIO
    TITLE "3:cjc039_4494"
    INDEX 01 00:48:10
  TRACK 29 AUDIO
    TITLE "0:"
    INDEX 01 00:51:56
  TRACK 30 AUDIO
    TITLE "2:cjc039_4495"
    INDEX 01 00:53:31
  TRACK 31 AUDIO
    TITLE "0:"
    INDEX 01 00:54:40
  TRACK 32 AUDIO
    TITLE "3:cjc039_4496"
    INDEX 01 00:55:16
  TRACK 33 AUDIO
    TITLE "0:"
    INDEX 01 00:59:16
  TRACK 34 AUDIO
    TITLE "2:cjc039_4497"
    INDEX 01 01:00:68
  TRACK 35 AUDIO
    TITLE "0:"
    INDEX 01 01:02:14
  TRACK 36 AUDIO
    TITLE "3:cjc039_4498"
    INDEX 01 01:02:65
  TRACK 37 AUDIO
    TITLE "0:"
    INDEX 01 01:06:59
  TRACK 38 AUDIO
    TITLE "2:cjc039_4499"
    INDEX 01 01:08:35
  TRACK 39 AUDIO
    TITLE "0:"
    INDEX 01 01:09:44
  TRACK 40 AUDIO
    TITLE "3:cjc039_4500"
    INDEX 01 01:10:20
  TRACK 41 AUDIO
    TITLE "0:"
    INDEX 01 01:15:31
  TRACK 42 AUDIO
    TITLE "2:cjc039_4501"
    INDEX 01 01:17:08
  TRACK 43 AUDIO
    TITLE "0:"
    INDEX 01 01:18:15
  TRACK 44 AUDIO
    TITLE "3:cjc039_4502"
    INDEX 01 01:18:62
  TRACK 45 AUDIO
    TITLE "0:"
    INDEX 01 01:21:59
  TRACK 46 AUDIO
    TITLE "2:cjc039_4503"
    INDEX 01 01:23:38
  TRACK 47 AUDIO
    TITLE "0:"
    INDEX 01 01:24:61
  TRACK 48 AUDIO
    TITLE "3:cjc039_4504"
    INDEX 01 01:25:45
  TRACK 49 AUDIO
    TITLE "0:"
    INDEX 01 01:29:29
  TRACK 50 AUDIO
    TITLE "2:cjc039_4505"
    INDEX 01 01:31:04
  TRACK 51 AUDIO
    TITLE "0:"
    INDEX 01 01:32:02
  TRACK 52 AUDIO
    TITLE "3:cjc039_4506"
    INDEX 01 01:32:57
  TRACK 53 AUDIO
    TITLE "0:"
    INDEX 01 01:35:14
  TRACK 54 AUDIO
    TITLE "2:cjc039_4507"
    INDEX 01 01:36:72
  TRACK 55 AUDIO
    TITLE "0:"
    INDEX 01 01:38:28
  TRACK 56 AUDIO
    TITLE "3:cjc039_4508"
    INDEX 01 01:39:06
  TRACK 57 AUDIO
    TITLE "0:"
    INDEX 01 01:42:37
  TRACK 58 AUDIO
    TITLE "2:cjc039_4509"
    INDEX 01 01:44:11
  TRACK 59 AUDIO
    TITLE "0:"
    INDEX 01 01:45:16
  TRACK 60 AUDIO
    TITLE "3:cjc039_4510"
    INDEX 01 01:45:67
  TRACK 61 AUDIO
    TITLE "0:"
    INDEX 01 01:48:60
  TRACK 62 AUDIO
    TITLE "2:cjc039_4511"
    INDEX 01 01:50:29
  TRACK 63 AUDIO
    TITLE "0:"
    INDEX 01 01:54:05
  TRACK 64 AUDIO
    TITLE "3:cjc039_4512"
    INDEX 01 01:54:52
  TRACK 65 AUDIO
    TITLE "0:"
    INDEX 01 01:59:20
  TRACK 66 AUDIO
    TITLE "2:cjc039_4513"
    INDEX 01 02:00:69
  TRACK 67 AUDIO
    TITLE "0:"
    INDEX 01 02:02:11
  TRACK 68 AUDIO
    TITLE "3:cjc039_4514"
    INDEX 01 02:02:58
  TRACK 69 AUDIO
    TITLE "0:"
    INDEX 01 02:05:66
  TRACK 70 AUDIO
    TITLE "2:cjc039_4515"
    INDEX 01 02:07:39
  TRACK 71 AUDIO
    TITLE "0:"
    INDEX 01 02:09:01
  TRACK 72 AUDIO
    TITLE "3:cjc039_4516"
    INDEX 01 02:09:54
  TRACK 73 AUDIO
    TITLE "0:"
    INDEX 01 02:14:02
  TRACK 74 AUDIO
    TITLE "2:cjc039_4517"
    INDEX 01 02:15:52
  TRACK 75 AUDIO
    TITLE "0:"
    INDEX 01 02:16:62
  TRACK 76 AUDIO
    TITLE "3:cjc039_4518"
    INDEX 01 02:17:44
  TRACK 77 AUDIO
    TITLE "0:"
    INDEX 01 02:20:18
  TRACK 78 AUDIO
    TITLE "2:cjc039_4519"
    INDEX 01 02:21:69
  TRACK 79 AUDIO
    TITLE "0:"
    INDEX 01 02:23:28
  TRACK 80 AUDIO
    TITLE "3:cjc039_4520"
    INDEX 01 02:24:06
  TRACK 81 AUDIO
    TITLE "0:"
    INDEX 01 02:26:70
